<svg xmlns="http://www.w3.org/2000/svg" xmlns:xlink="http://www.w3.org/1999/xlink" width="480" height="480" viewBox="0 0 480 480"><rect width="100%" height="100%" fill="#DDDDDD"/><path d="M96.15 237.10L99.87 237.10Q101.24 237.10 102.26 236.76Q103.28 236.42 103.95 235.78Q104.63 235.14 104.96 234.23Q105.29 233.31 105.29 232.18L105.29 232.18Q105.29 231.11 104.96 230.24Q104.63 229.37 103.96 228.76Q103.29 228.15 102.28 227.83Q101.26 227.50 99.87 227.50L99.87 227.50L96.15 227.50L96.15 237.10ZM91.18 223.66L99.87 223.66Q102.55 223.66 104.52 224.28Q106.48 224.91 107.75 226.04Q109.03 227.17 109.65 228.74Q110.27 230.32 110.27 232.18L110.27 232.18Q110.27 234.13 109.62 235.75Q108.97 237.36 107.68 238.53Q106.38 239.69 104.43 240.34Q102.48 240.99 99.87 240.99L99.87 240.99L96.15 240.99L96.15 250.41L91.18 250.41L91.18 223.66ZM113.41 222.92L117.98 222.92L117.98 250.41L113.41 250.41L113.41 222.92ZM132.58 245.50L132.58 242.30Q130.60 242.40 129.25 242.65Q127.90 242.90 127.09 243.28Q126.27 243.67 125.92 244.19Q125.57 244.71 125.57 245.32L125.57 245.32Q125.57 246.52 126.28 247.04Q126.99 247.56 128.14 247.56L128.14 247.56Q129.55 247.56 130.57 247.05Q131.60 246.54 132.58 245.50L132.58 245.50ZM122.92 235.53L122.11 234.07Q125.38 231.07 129.99 231.07L129.99 231.07Q131.65 231.07 132.97 231.62Q134.28 232.17 135.19 233.14Q136.09 234.11 136.57 235.46Q137.04 236.81 137.04 238.42L137.04 238.42L137.04 250.41L134.97 250.41Q134.32 250.41 133.97 250.21Q133.62 250.02 133.41 249.43L133.41 249.43L133.01 248.06Q132.28 248.70 131.60 249.19Q130.91 249.68 130.17 250.02Q129.43 250.35 128.59 250.53Q127.75 250.70 126.73 250.70L126.73 250.70Q125.53 250.70 124.51 250.38Q123.50 250.05 122.76 249.41Q122.02 248.76 121.61 247.80Q121.20 246.84 121.20 245.56L121.20 245.56Q121.20 244.84 121.44 244.13Q121.68 243.41 122.23 242.77Q122.77 242.12 123.64 241.54Q124.51 240.97 125.78 240.55Q127.05 240.12 128.73 239.85Q130.42 239.58 132.58 239.53L132.58 239.53L132.58 238.42Q132.58 236.51 131.77 235.60Q130.95 234.68 129.42 234.68L129.42 234.68Q128.31 234.68 127.58 234.94Q126.84 235.20 126.29 235.52Q125.73 235.85 125.28 236.11Q124.83 236.36 124.27 236.36L124.27 236.36Q123.79 236.36 123.46 236.12Q123.13 235.87 122.92 235.53L122.92 235.53ZM156.13 233.77L154.93 235.44Q154.72 235.70 154.53 235.85Q154.34 235.99 153.97 235.99L153.97 235.99Q153.61 235.99 153.28 235.78Q152.95 235.57 152.49 235.30Q152.02 235.03 151.39 234.82Q150.75 234.61 149.80 234.61L149.80 234.61Q148.60 234.61 147.69 235.04Q146.79 235.48 146.19 236.29Q145.59 237.10 145.29 238.26Q144.99 239.42 144.99 240.88L144.99 240.88Q144.99 242.40 145.32 243.58Q145.64 244.76 146.25 245.57Q146.86 246.37 147.73 246.79Q148.60 247.21 149.69 247.21L149.69 247.21Q150.78 247.21 151.46 246.94Q152.13 246.67 152.60 246.35Q153.06 246.02 153.40 245.75Q153.74 245.49 154.17 245.49L154.17 245.49Q154.72 245.49 155.00 245.91L155.00 245.91L156.32 247.58Q155.56 248.46 154.67 249.06Q153.78 249.67 152.83 250.03Q151.88 250.39 150.87 250.54Q149.86 250.68 148.86 250.68L148.86 250.68Q147.10 250.68 145.55 250.03Q143.99 249.37 142.83 248.11Q141.66 246.85 140.99 245.03Q140.31 243.21 140.31 240.88L140.31 240.88Q140.31 238.79 140.91 237.00Q141.52 235.22 142.68 233.91Q143.85 232.61 145.57 231.87Q147.29 231.13 149.53 231.13L149.53 231.13Q151.65 231.13 153.25 231.81Q154.85 232.50 156.13 233.77L156.13 233.77ZM162.77 238.73L171.39 238.73Q171.39 237.84 171.14 237.06Q170.89 236.27 170.39 235.68Q169.89 235.09 169.13 234.75Q168.36 234.40 167.34 234.40L167.34 234.40Q165.36 234.40 164.22 235.53Q163.09 236.66 162.77 238.73L162.77 238.73ZM174.43 241.49L162.68 241.49Q162.79 242.95 163.20 244.01Q163.60 245.08 164.27 245.77Q164.94 246.47 165.85 246.81Q166.77 247.15 167.88 247.15L167.88 247.15Q168.99 247.15 169.79 246.89Q170.60 246.63 171.20 246.32Q171.80 246.00 172.25 245.74Q172.71 245.49 173.13 245.49L173.13 245.49Q173.71 245.49 173.98 245.91L173.98 245.91L175.30 247.58Q174.54 248.46 173.59 249.06Q172.65 249.67 171.62 250.03Q170.60 250.39 169.53 250.54Q168.47 250.68 167.47 250.68L167.47 250.68Q165.49 250.68 163.79 250.03Q162.09 249.37 160.83 248.08Q159.57 246.80 158.85 244.90Q158.13 243.01 158.13 240.51L158.13 240.51Q158.13 238.57 158.76 236.85Q159.39 235.14 160.56 233.88Q161.74 232.61 163.43 231.87Q165.12 231.13 167.25 231.13L167.25 231.13Q169.04 231.13 170.56 231.70Q172.08 232.28 173.17 233.38Q174.26 234.48 174.88 236.08Q175.50 237.68 175.50 239.73L175.50 239.73Q175.50 240.77 175.28 241.13Q175.06 241.49 174.43 241.49L174.43 241.49ZM183.49 222.92L183.49 233.46Q184.60 232.42 185.93 231.78Q187.27 231.13 189.06 231.13L189.06 231.13Q190.61 231.13 191.82 231.66Q193.02 232.18 193.82 233.14Q194.63 234.09 195.05 235.41Q195.46 236.73 195.46 238.33L195.46 238.33L195.46 250.41L190.89 250.41L190.89 238.33Q190.89 236.59 190.10 235.63Q189.30 234.68 187.67 234.68L187.67 234.68Q186.49 234.68 185.45 235.22Q184.42 235.75 183.49 236.68L183.49 236.68L183.49 250.41L178.92 250.41L178.92 222.92L183.49 222.92ZM208.19 231.13L208.19 231.13Q210.30 231.13 212.03 231.81Q213.76 232.50 214.99 233.76Q216.22 235.01 216.88 236.83Q217.55 238.64 217.55 240.88L217.55 240.88Q217.55 243.14 216.88 244.95Q216.22 246.76 214.99 248.04Q213.76 249.31 212.03 250.00Q210.30 250.68 208.19 250.68L208.19 250.68Q206.06 250.68 204.32 250.00Q202.58 249.31 201.35 248.04Q200.12 246.76 199.45 244.95Q198.77 243.14 198.77 240.88L198.77 240.88Q198.77 238.64 199.45 236.83Q200.12 235.01 201.35 233.76Q202.58 232.50 204.32 231.81Q206.06 231.13 208.19 231.13ZM208.19 247.17L208.19 247.17Q210.56 247.17 211.70 245.58Q212.83 243.99 212.83 240.92L212.83 240.92Q212.83 237.84 211.70 236.24Q210.56 234.63 208.19 234.63L208.19 234.63Q205.78 234.63 204.63 236.24Q203.47 237.86 203.47 240.92L203.47 240.92Q203.47 243.97 204.63 245.57Q205.78 247.17 208.19 247.17ZM221.10 222.92L225.67 222.92L225.67 250.41L221.10 250.41L221.10 222.92ZM242.16 244.78L242.16 236.27Q241.38 235.33 240.46 234.94Q239.55 234.55 238.49 234.55L238.49 234.55Q237.46 234.55 236.62 234.94Q235.79 235.33 235.20 236.12Q234.61 236.90 234.29 238.11Q233.98 239.32 233.98 240.97L233.98 240.97Q233.98 242.64 234.25 243.79Q234.51 244.95 235.01 245.68Q235.51 246.41 236.24 246.73Q236.96 247.06 237.84 247.06L237.84 247.06Q239.27 247.06 240.27 246.47Q241.27 245.87 242.16 244.78L242.16 244.78ZM242.16 222.92L246.72 222.92L246.72 250.41L243.93 250.41Q243.02 250.41 242.78 249.57L242.78 249.57L242.40 247.74Q241.25 249.06 239.76 249.87Q238.27 250.68 236.29 250.68L236.29 250.68Q234.74 250.68 233.44 250.04Q232.15 249.39 231.21 248.16Q230.28 246.93 229.77 245.12Q229.26 243.30 229.26 240.97L229.26 240.97Q229.26 238.86 229.83 237.05Q230.41 235.24 231.48 233.90Q232.55 232.57 234.05 231.82Q235.55 231.07 237.42 231.07L237.42 231.07Q239.01 231.07 240.14 231.57Q241.27 232.07 242.16 232.92L242.16 232.92L242.16 222.92ZM254.85 238.73L263.47 238.73Q263.47 237.84 263.22 237.06Q262.97 236.27 262.47 235.68Q261.97 235.09 261.20 234.75Q260.43 234.40 259.42 234.40L259.42 234.40Q257.44 234.40 256.30 235.53Q255.16 236.66 254.85 238.73L254.85 238.73ZM266.50 241.49L254.75 241.49Q254.86 242.95 255.27 244.01Q255.68 245.08 256.34 245.77Q257.01 246.47 257.93 246.81Q258.84 247.15 259.95 247.15L259.95 247.15Q261.06 247.15 261.87 246.89Q262.67 246.63 263.27 246.32Q263.87 246.00 264.33 245.74Q264.78 245.49 265.21 245.49L265.21 245.49Q265.78 245.49 266.06 245.91L266.06 245.91L267.37 247.58Q266.61 248.46 265.67 249.06Q264.73 249.67 263.70 250.03Q262.67 250.39 261.61 250.54Q260.54 250.68 259.55 250.68L259.55 250.68Q257.57 250.68 255.86 250.03Q254.16 249.37 252.90 248.08Q251.65 246.80 250.92 244.90Q250.20 243.01 250.20 240.51L250.20 240.51Q250.20 238.57 250.83 236.85Q251.46 235.14 252.64 233.88Q253.81 232.61 255.50 231.87Q257.20 231.13 259.32 231.13L259.32 231.13Q261.12 231.13 262.63 231.70Q264.15 232.28 265.24 233.38Q266.33 234.48 266.95 236.08Q267.57 237.68 267.57 239.73L267.57 239.73Q267.57 240.77 267.35 241.13Q267.13 241.49 266.50 241.49L266.50 241.49ZM275.03 232.57L275.31 234.72Q276.20 233.02 277.42 232.05Q278.64 231.07 280.30 231.07L280.30 231.07Q281.62 231.07 282.41 231.65L282.41 231.65L282.12 235.07Q282.02 235.40 281.85 235.54Q281.67 235.68 281.38 235.68L281.38 235.68Q281.10 235.68 280.55 235.59Q280.01 235.50 279.49 235.50L279.49 235.50Q278.73 235.50 278.14 235.72Q277.55 235.94 277.07 236.36Q276.60 236.77 276.24 237.36Q275.88 237.96 275.57 238.71L275.57 238.71L275.57 250.41L271.00 250.41L271.00 231.43L273.68 231.43Q274.38 231.43 274.66 231.68Q274.94 231.92 275.03 232.57L275.03 232.57ZM293.94 231.43L298.52 231.43L298.52 250.41L293.94 250.41L293.94 231.43ZM299.15 225.89L299.15 225.89Q299.15 226.49 298.91 227.00Q298.67 227.52 298.27 227.91Q297.88 228.30 297.34 228.53Q296.80 228.76 296.19 228.76L296.19 228.76Q295.60 228.76 295.07 228.53Q294.55 228.30 294.16 227.91Q293.77 227.52 293.54 227.00Q293.31 226.49 293.31 225.89L293.31 225.89Q293.31 225.28 293.54 224.75Q293.77 224.21 294.16 223.82Q294.55 223.43 295.07 223.20Q295.60 222.97 296.19 222.97L296.19 222.97Q296.80 222.97 297.34 223.20Q297.88 223.43 298.27 223.82Q298.67 224.21 298.91 224.75Q299.15 225.28 299.15 225.89ZM307.76 250.41L303.19 250.41L303.19 231.43L305.98 231.43Q306.87 231.43 307.15 232.26L307.15 232.26L307.44 233.66Q307.94 233.11 308.49 232.65Q309.03 232.18 309.65 231.85Q310.27 231.52 310.98 231.32Q311.70 231.13 312.55 231.13L312.55 231.13Q314.34 231.13 315.50 232.10Q316.65 233.07 317.23 234.68L317.23 234.68Q317.67 233.74 318.34 233.06Q319.00 232.39 319.80 231.96Q320.60 231.54 321.49 231.33Q322.39 231.13 323.30 231.13L323.30 231.13Q324.87 231.13 326.09 231.61Q327.31 232.09 328.14 233.02Q328.98 233.94 329.41 235.27Q329.85 236.61 329.85 238.33L329.85 238.33L329.85 250.41L325.28 250.41L325.28 238.33Q325.28 236.51 324.48 235.60Q323.68 234.68 322.15 234.68L322.15 234.68Q321.45 234.68 320.85 234.92Q320.24 235.16 319.79 235.62Q319.34 236.07 319.08 236.75Q318.82 237.44 318.82 238.33L318.82 238.33L318.82 250.41L314.23 250.41L314.23 238.33Q314.23 236.42 313.46 235.55Q312.70 234.68 311.22 234.68L311.22 234.68Q310.22 234.68 309.36 235.17Q308.50 235.66 307.76 236.51L307.76 236.51L307.76 250.41ZM344.20 245.50L344.20 242.30Q342.22 242.40 340.87 242.65Q339.52 242.90 338.71 243.28Q337.89 243.67 337.54 244.19Q337.19 244.71 337.19 245.32L337.19 245.32Q337.19 246.52 337.90 247.04Q338.61 247.56 339.76 247.56L339.76 247.56Q341.17 247.56 342.19 247.05Q343.22 246.54 344.20 245.50L344.20 245.50ZM334.54 235.53L333.73 234.07Q337.00 231.07 341.61 231.07L341.61 231.07Q343.28 231.07 344.59 231.62Q345.90 232.17 346.81 233.14Q347.72 234.11 348.19 235.46Q348.66 236.81 348.66 238.42L348.66 238.42L348.66 250.41L346.59 250.41Q345.94 250.41 345.59 250.21Q345.24 250.02 345.03 249.43L345.03 249.43L344.63 248.06Q343.91 248.70 343.22 249.19Q342.54 249.68 341.80 250.02Q341.06 250.35 340.21 250.53Q339.37 250.70 338.36 250.70L338.36 250.70Q337.15 250.70 336.14 250.38Q335.12 250.05 334.38 249.41Q333.64 248.76 333.23 247.80Q332.82 246.84 332.82 245.56L332.82 245.56Q332.82 244.84 333.06 244.13Q333.30 243.41 333.85 242.77Q334.40 242.12 335.27 241.54Q336.14 240.97 337.40 240.55Q338.67 240.12 340.35 239.85Q342.04 239.58 344.20 239.53L344.20 239.53L344.20 238.42Q344.20 236.51 343.39 235.60Q342.57 234.68 341.04 234.68L341.04 234.68Q339.93 234.68 339.20 234.94Q338.47 235.20 337.91 235.52Q337.36 235.85 336.90 236.11Q336.45 236.36 335.89 236.36L335.89 236.36Q335.41 236.36 335.08 236.12Q334.75 235.87 334.54 235.53L334.54 235.53ZM359.89 240.45L359.89 240.45Q360.74 240.45 361.37 240.22Q362.00 239.99 362.41 239.58Q362.83 239.18 363.04 238.60Q363.26 238.03 363.26 237.35L363.26 237.35Q363.26 235.94 362.41 235.12Q361.57 234.29 359.89 234.29L359.89 234.29Q358.21 234.29 357.36 235.12Q356.52 235.94 356.52 237.35L356.52 237.35Q356.52 238.01 356.74 238.58Q356.95 239.16 357.36 239.57Q357.78 239.99 358.42 240.22Q359.06 240.45 359.89 240.45ZM365.05 251.26L365.05 251.26Q365.05 250.70 364.72 250.35Q364.38 250.00 363.81 249.81Q363.24 249.61 362.47 249.52Q361.70 249.43 360.84 249.38Q359.98 249.33 359.07 249.30Q358.15 249.26 357.28 249.15L357.28 249.15Q356.52 249.57 356.05 250.15Q355.58 250.72 355.58 251.48L355.58 251.48Q355.58 251.98 355.83 252.41Q356.08 252.85 356.62 253.16Q357.17 253.48 358.04 253.65Q358.91 253.83 360.17 253.83L360.17 253.83Q361.44 253.83 362.37 253.63Q363.29 253.44 363.89 253.10Q364.50 252.76 364.77 252.28Q365.05 251.81 365.05 251.26ZM364.14 232.07L369.60 232.07L369.60 233.77Q369.60 234.59 368.62 234.77L368.62 234.77L366.92 235.09Q367.31 236.07 367.31 237.23L367.31 237.23Q367.31 238.64 366.74 239.78Q366.18 240.92 365.18 241.71Q364.18 242.51 362.82 242.94Q361.46 243.38 359.89 243.38L359.89 243.38Q359.33 243.38 358.82 243.32Q358.30 243.27 357.80 243.17L357.80 243.17Q356.91 243.71 356.91 244.38L356.91 244.38Q356.91 244.95 357.44 245.22Q357.97 245.49 358.83 245.60Q359.70 245.71 360.81 245.74Q361.92 245.76 363.09 245.86Q364.26 245.95 365.37 246.18Q366.48 246.41 367.34 246.91Q368.21 247.41 368.74 248.27Q369.27 249.13 369.27 250.48L369.27 250.48Q369.27 251.74 368.65 252.92Q368.03 254.11 366.85 255.03Q365.68 255.96 363.97 256.52Q362.26 257.08 360.07 257.08L360.07 257.08Q357.93 257.08 356.34 256.67Q354.75 256.25 353.69 255.56Q352.64 254.86 352.12 253.96Q351.60 253.05 351.60 252.07L351.60 252.07Q351.60 250.74 352.41 249.84Q353.21 248.94 354.62 248.41L354.62 248.41Q353.86 248.02 353.41 247.37Q352.97 246.72 352.97 245.67L352.97 245.67Q352.97 245.24 353.13 244.79Q353.28 244.34 353.59 243.89Q353.90 243.45 354.36 243.05Q354.82 242.65 355.45 242.34L355.45 242.34Q354.01 241.56 353.18 240.27Q352.36 238.97 352.36 237.23L352.36 237.23Q352.36 235.83 352.92 234.69Q353.49 233.55 354.50 232.75Q355.50 231.94 356.88 231.52Q358.26 231.09 359.89 231.09L359.89 231.09Q361.11 231.09 362.18 231.34Q363.26 231.59 364.14 232.07L364.14 232.07ZM376.10 238.73L384.72 238.73Q384.72 237.84 384.47 237.06Q384.22 236.27 383.72 235.68Q383.22 235.09 382.45 234.75Q381.68 234.40 380.66 234.40L380.66 234.40Q378.69 234.40 377.55 235.53Q376.41 236.66 376.10 238.73L376.10 238.73ZM387.75 241.49L376.00 241.49Q376.11 242.95 376.52 244.01Q376.93 245.08 377.59 245.77Q378.26 246.47 379.18 246.81Q380.09 247.15 381.20 247.15L381.20 247.15Q382.31 247.15 383.12 246.89Q383.92 246.63 384.52 246.32Q385.12 246.00 385.58 245.74Q386.03 245.49 386.46 245.49L386.46 245.49Q387.03 245.49 387.31 245.91L387.31 245.91L388.62 247.58Q387.86 248.46 386.92 249.06Q385.97 249.67 384.95 250.03Q383.92 250.39 382.86 250.54Q381.79 250.68 380.79 250.68L380.79 250.68Q378.81 250.68 377.11 250.03Q375.41 249.37 374.15 248.08Q372.89 246.80 372.17 244.90Q371.45 243.01 371.45 240.51L371.45 240.51Q371.45 238.57 372.08 236.85Q372.71 235.14 373.88 233.88Q375.06 232.61 376.75 231.87Q378.44 231.13 380.57 231.13L380.57 231.13Q382.37 231.13 383.88 231.70Q385.40 232.28 386.49 233.38Q387.58 234.48 388.20 236.08Q388.82 237.68 388.82 239.73L388.82 239.73Q388.82 240.77 388.60 241.13Q388.38 241.49 387.75 241.49L387.75 241.49Z" fill="#999999"/></svg>