<svg xmlns="http://www.w3.org/2000/svg" xmlns:xlink="http://www.w3.org/1999/xlink" width="480" height="480" viewBox="0 0 480 480"><rect width="100%" height="100%" fill="#DDDDDD"/><path d="M118.46 237.51L118.46 237.51Q118.46 239.98 117.64 242.08Q116.83 244.18 115.34 245.71Q113.85 247.25 111.76 248.11Q109.67 248.97 107.11 248.97L107.11 248.97Q104.57 248.97 102.48 248.11Q100.38 247.25 98.89 245.71Q97.39 244.18 96.57 242.08Q95.75 239.98 95.75 237.51L95.75 237.51Q95.75 235.05 96.57 232.95Q97.39 230.85 98.89 229.31Q100.38 227.78 102.48 226.92Q104.57 226.06 107.11 226.06L107.11 226.06Q108.82 226.06 110.32 226.45Q111.82 226.85 113.08 227.57Q114.33 228.29 115.33 229.32Q116.33 230.35 117.03 231.62Q117.73 232.89 118.09 234.38Q118.46 235.87 118.46 237.51ZM114.19 237.51L114.19 237.51Q114.19 235.67 113.70 234.20Q113.20 232.74 112.29 231.72Q111.37 230.69 110.06 230.15Q108.75 229.61 107.11 229.61L107.11 229.61Q105.47 229.61 104.16 230.15Q102.85 230.69 101.93 231.72Q101.00 232.74 100.51 234.20Q100.01 235.67 100.01 237.51L100.01 237.51Q100.01 239.36 100.51 240.82Q101.00 242.29 101.93 243.30Q102.85 244.32 104.16 244.86Q105.47 245.40 107.11 245.40L107.11 245.40Q108.75 245.40 110.06 244.86Q111.37 244.32 112.29 243.30Q113.20 242.29 113.70 240.82Q114.19 239.36 114.19 237.51ZM124.90 233.78L125.14 235.57Q125.88 234.15 126.90 233.34Q127.93 232.52 129.32 232.52L129.32 232.52Q130.42 232.52 131.09 233.00L131.09 233.00L130.84 235.87Q130.76 236.15 130.62 236.26Q130.47 236.38 130.22 236.38L130.22 236.38Q129.99 236.38 129.53 236.30Q129.07 236.23 128.64 236.23L128.64 236.23Q128.00 236.23 127.51 236.41Q127.01 236.60 126.62 236.95Q126.22 237.30 125.92 237.79Q125.62 238.29 125.35 238.92L125.35 238.92L125.35 248.72L121.53 248.72L121.53 232.82L123.77 232.82Q124.36 232.82 124.59 233.03Q124.83 233.23 124.90 233.78L124.90 233.78ZM133.21 232.82L137.06 232.82L137.06 248.72L133.21 248.72L133.21 232.82ZM137.58 228.18L137.58 228.18Q137.58 228.68 137.38 229.11Q137.18 229.55 136.85 229.87Q136.51 230.20 136.06 230.39Q135.62 230.58 135.10 230.58L135.10 230.58Q134.61 230.58 134.17 230.39Q133.72 230.20 133.40 229.87Q133.07 229.55 132.88 229.11Q132.69 228.68 132.69 228.18L132.69 228.18Q132.69 227.67 132.88 227.22Q133.07 226.77 133.40 226.45Q133.72 226.12 134.17 225.93Q134.61 225.73 135.10 225.73L135.10 225.73Q135.62 225.73 136.06 225.93Q136.51 226.12 136.85 226.45Q137.18 226.77 137.38 227.22Q137.58 227.67 137.58 228.18ZM146.78 240.38L146.78 240.38Q147.49 240.38 148.02 240.19Q148.54 239.99 148.89 239.65Q149.24 239.31 149.42 238.83Q149.60 238.35 149.60 237.78L149.60 237.78Q149.60 236.60 148.89 235.91Q148.19 235.22 146.78 235.22L146.78 235.22Q145.36 235.22 144.66 235.91Q143.95 236.60 143.95 237.78L143.95 237.78Q143.95 238.33 144.13 238.81Q144.31 239.29 144.66 239.64Q145.01 239.99 145.54 240.19Q146.08 240.38 146.78 240.38ZM151.10 249.43L151.10 249.43Q151.10 248.97 150.82 248.67Q150.54 248.38 150.06 248.22Q149.58 248.05 148.94 247.97Q148.29 247.90 147.57 247.86Q146.85 247.82 146.09 247.79Q145.32 247.76 144.59 247.66L144.59 247.66Q143.95 248.02 143.56 248.50Q143.16 248.98 143.16 249.62L143.16 249.62Q143.16 250.04 143.37 250.40Q143.58 250.76 144.04 251.03Q144.50 251.29 145.23 251.44Q145.95 251.59 147.01 251.59L147.01 251.59Q148.08 251.59 148.85 251.42Q149.63 251.26 150.13 250.97Q150.63 250.69 150.87 250.29Q151.10 249.90 151.10 249.43ZM150.34 233.36L154.91 233.36L154.91 234.78Q154.91 235.47 154.09 235.62L154.09 235.62L152.67 235.88Q152.99 236.71 152.99 237.68L152.99 237.68Q152.99 238.86 152.52 239.81Q152.05 240.77 151.21 241.43Q150.37 242.10 149.23 242.46Q148.09 242.83 146.78 242.83L146.78 242.83Q146.31 242.83 145.88 242.78Q145.44 242.74 145.02 242.66L145.02 242.66Q144.28 243.11 144.28 243.67L144.28 243.67Q144.28 244.15 144.72 244.37Q145.16 244.60 145.89 244.69Q146.62 244.78 147.55 244.81Q148.48 244.83 149.46 244.91Q150.43 244.98 151.36 245.18Q152.29 245.37 153.02 245.79Q153.75 246.21 154.19 246.93Q154.63 247.65 154.63 248.78L154.63 248.78Q154.63 249.83 154.11 250.83Q153.60 251.82 152.61 252.59Q151.63 253.37 150.19 253.84Q148.76 254.31 146.93 254.31L146.93 254.31Q145.13 254.31 143.80 253.97Q142.47 253.62 141.58 253.04Q140.70 252.45 140.27 251.69Q139.83 250.94 139.83 250.11L139.83 250.11Q139.83 249.00 140.51 248.25Q141.18 247.49 142.36 247.04L142.36 247.04Q141.72 246.72 141.35 246.18Q140.98 245.63 140.98 244.75L140.98 244.75Q140.98 244.39 141.11 244.01Q141.24 243.63 141.50 243.26Q141.75 242.89 142.14 242.56Q142.53 242.22 143.06 241.96L143.06 241.96Q141.85 241.31 141.16 240.22Q140.47 239.14 140.47 237.68L140.47 237.68Q140.47 236.50 140.94 235.55Q141.41 234.60 142.26 233.92Q143.10 233.25 144.26 232.89Q145.41 232.54 146.78 232.54L146.78 232.54Q147.80 232.54 148.70 232.75Q149.60 232.96 150.34 233.36L150.34 233.36ZM157.45 232.82L161.30 232.82L161.30 248.72L157.45 248.72L157.45 232.82ZM161.83 228.18L161.83 228.18Q161.83 228.68 161.62 229.11Q161.42 229.55 161.09 229.87Q160.76 230.20 160.31 230.39Q159.86 230.58 159.35 230.58L159.35 230.58Q158.85 230.58 158.41 230.39Q157.97 230.20 157.64 229.87Q157.32 229.55 157.12 229.11Q156.93 228.68 156.93 228.18L156.93 228.18Q156.93 227.67 157.12 227.22Q157.32 226.77 157.64 226.45Q157.97 226.12 158.41 225.93Q158.85 225.73 159.35 225.73L159.35 225.73Q159.86 225.73 160.31 225.93Q160.76 226.12 161.09 226.45Q161.42 226.77 161.62 227.22Q161.83 227.67 161.83 228.18ZM168.52 233.51L168.79 234.77Q169.27 234.29 169.80 233.88Q170.34 233.47 170.93 233.18Q171.53 232.89 172.21 232.73Q172.89 232.57 173.70 232.57L173.70 232.57Q175.00 232.57 176.01 233.01Q177.02 233.45 177.69 234.25Q178.36 235.05 178.71 236.16Q179.06 237.26 179.06 238.60L179.06 238.60L179.06 248.72L175.23 248.72L175.23 238.60Q175.23 237.14 174.57 236.34Q173.90 235.54 172.54 235.54L172.54 235.54Q171.54 235.54 170.68 235.99Q169.81 236.44 169.03 237.22L169.03 237.22L169.03 248.72L165.20 248.72L165.20 232.82L167.55 232.82Q168.29 232.82 168.52 233.51L168.52 233.51ZM191.09 244.61L191.09 241.93Q189.43 242.01 188.30 242.22Q187.17 242.43 186.49 242.75Q185.80 243.08 185.51 243.51Q185.22 243.94 185.22 244.46L185.22 244.46Q185.22 245.46 185.81 245.90Q186.41 246.33 187.37 246.33L187.37 246.33Q188.55 246.33 189.41 245.91Q190.27 245.48 191.09 244.61L191.09 244.61ZM183.00 236.26L182.32 235.03Q185.06 232.52 188.92 232.52L188.92 232.52Q190.31 232.52 191.42 232.98Q192.52 233.44 193.28 234.25Q194.03 235.06 194.43 236.19Q194.83 237.33 194.83 238.67L194.83 238.67L194.83 248.72L193.09 248.72Q192.55 248.72 192.25 248.56Q191.96 248.39 191.79 247.90L191.79 247.90L191.45 246.75Q190.84 247.29 190.27 247.70Q189.69 248.11 189.07 248.39Q188.45 248.67 187.75 248.82Q187.04 248.97 186.19 248.97L186.19 248.97Q185.18 248.97 184.33 248.70Q183.48 248.42 182.86 247.88Q182.24 247.34 181.90 246.53Q181.56 245.73 181.56 244.66L181.56 244.66Q181.56 244.05 181.76 243.46Q181.96 242.86 182.42 242.32Q182.87 241.77 183.60 241.29Q184.33 240.81 185.39 240.46Q186.46 240.10 187.87 239.88Q189.28 239.65 191.09 239.60L191.09 239.60L191.09 238.67Q191.09 237.08 190.41 236.31Q189.73 235.54 188.44 235.54L188.44 235.54Q187.51 235.54 186.90 235.76Q186.28 235.98 185.82 236.25Q185.35 236.52 184.97 236.74Q184.60 236.95 184.13 236.95L184.13 236.95Q183.73 236.95 183.45 236.75Q183.17 236.54 183.00 236.26L183.00 236.26ZM198.47 225.69L202.30 225.69L202.30 248.72L198.47 248.72L198.47 225.69ZM213.78 232.82L217.63 232.82L217.63 248.72L213.78 248.72L213.78 232.82ZM218.15 228.18L218.15 228.18Q218.15 228.68 217.95 229.11Q217.75 229.55 217.42 229.87Q217.08 230.20 216.63 230.39Q216.18 230.58 215.67 230.58L215.67 230.58Q215.18 230.58 214.73 230.39Q214.29 230.20 213.97 229.87Q213.64 229.55 213.45 229.11Q213.25 228.68 213.25 228.18L213.25 228.18Q213.25 227.67 213.45 227.22Q213.64 226.77 213.97 226.45Q214.29 226.12 214.73 225.93Q215.18 225.73 215.67 225.73L215.67 225.73Q216.18 225.73 216.63 225.93Q217.08 226.12 217.42 226.45Q217.75 226.77 217.95 227.22Q218.15 227.67 218.15 228.18ZM225.36 248.72L221.53 248.72L221.53 232.82L223.87 232.82Q224.62 232.82 224.85 233.51L224.85 233.51L225.10 234.69Q225.52 234.23 225.97 233.84Q226.43 233.45 226.95 233.17Q227.47 232.89 228.06 232.73Q228.66 232.57 229.37 232.57L229.37 232.57Q230.88 232.57 231.85 233.38Q232.82 234.20 233.30 235.54L233.30 235.54Q233.67 234.75 234.23 234.19Q234.78 233.62 235.45 233.27Q236.12 232.91 236.87 232.74Q237.62 232.57 238.38 232.57L238.38 232.57Q239.70 232.57 240.72 232.97Q241.74 233.37 242.44 234.15Q243.14 234.92 243.50 236.04Q243.87 237.16 243.87 238.60L243.87 238.60L243.87 248.72L240.04 248.72L240.04 238.60Q240.04 237.08 239.37 236.31Q238.71 235.54 237.42 235.54L237.42 235.54Q236.83 235.54 236.33 235.75Q235.82 235.95 235.44 236.33Q235.06 236.71 234.85 237.28Q234.63 237.85 234.63 238.60L234.63 238.60L234.63 248.72L230.79 248.72L230.79 238.60Q230.79 237.00 230.14 236.27Q229.50 235.54 228.26 235.54L228.26 235.54Q227.42 235.54 226.70 235.95Q225.98 236.37 225.36 237.08L225.36 237.08L225.36 248.72ZM255.90 244.61L255.90 241.93Q254.24 242.01 253.11 242.22Q251.97 242.43 251.29 242.75Q250.61 243.08 250.32 243.51Q250.02 243.94 250.02 244.46L250.02 244.46Q250.02 245.46 250.62 245.90Q251.21 246.33 252.18 246.33L252.18 246.33Q253.35 246.33 254.21 245.91Q255.07 245.48 255.90 244.61L255.90 244.61ZM247.80 236.26L247.12 235.03Q249.87 232.52 253.73 232.52L253.73 232.52Q255.12 232.52 256.22 232.98Q257.32 233.44 258.08 234.25Q258.84 235.06 259.24 236.19Q259.63 237.33 259.63 238.67L259.63 238.67L259.63 248.72L257.89 248.72Q257.35 248.72 257.06 248.56Q256.76 248.39 256.59 247.90L256.59 247.90L256.25 246.75Q255.65 247.29 255.07 247.70Q254.50 248.11 253.88 248.39Q253.26 248.67 252.55 248.82Q251.85 248.97 251.00 248.97L251.00 248.97Q249.99 248.97 249.14 248.70Q248.28 248.42 247.66 247.88Q247.04 247.34 246.70 246.53Q246.36 245.73 246.36 244.66L246.36 244.66Q246.36 244.05 246.56 243.46Q246.77 242.86 247.22 242.32Q247.68 241.77 248.41 241.29Q249.14 240.81 250.20 240.46Q251.26 240.10 252.67 239.88Q254.08 239.65 255.90 239.60L255.90 239.60L255.90 238.67Q255.90 237.08 255.21 236.31Q254.53 235.54 253.24 235.54L253.24 235.54Q252.31 235.54 251.70 235.76Q251.09 235.98 250.63 236.25Q250.16 236.52 249.78 236.74Q249.40 236.95 248.94 236.95L248.94 236.95Q248.53 236.95 248.25 236.75Q247.97 236.54 247.80 236.26L247.80 236.26ZM269.04 240.38L269.04 240.38Q269.75 240.38 270.28 240.19Q270.81 239.99 271.15 239.65Q271.50 239.31 271.68 238.83Q271.86 238.35 271.86 237.78L271.86 237.78Q271.86 236.60 271.15 235.91Q270.45 235.22 269.04 235.22L269.04 235.22Q267.63 235.22 266.92 235.91Q266.22 236.60 266.22 237.78L266.22 237.78Q266.22 238.33 266.40 238.81Q266.57 239.29 266.92 239.64Q267.27 239.99 267.81 240.19Q268.34 240.38 269.04 240.38ZM273.36 249.43L273.36 249.43Q273.36 248.97 273.08 248.67Q272.81 248.38 272.33 248.22Q271.84 248.05 271.20 247.97Q270.56 247.90 269.84 247.86Q269.12 247.82 268.35 247.79Q267.58 247.76 266.85 247.66L266.85 247.66Q266.22 248.02 265.82 248.50Q265.43 248.98 265.43 249.62L265.43 249.62Q265.43 250.04 265.64 250.40Q265.85 250.76 266.30 251.03Q266.76 251.29 267.49 251.44Q268.22 251.59 269.27 251.59L269.27 251.59Q270.34 251.59 271.12 251.42Q271.89 251.26 272.39 250.97Q272.90 250.69 273.13 250.29Q273.36 249.90 273.36 249.43ZM272.60 233.36L277.18 233.36L277.18 234.78Q277.18 235.47 276.36 235.62L276.36 235.62L274.93 235.88Q275.25 236.71 275.25 237.68L275.25 237.68Q275.25 238.86 274.78 239.81Q274.31 240.77 273.47 241.43Q272.64 242.10 271.50 242.46Q270.36 242.83 269.04 242.83L269.04 242.83Q268.57 242.83 268.14 242.78Q267.71 242.74 267.29 242.66L267.29 242.66Q266.54 243.11 266.54 243.67L266.54 243.67Q266.54 244.15 266.99 244.37Q267.43 244.60 268.16 244.69Q268.88 244.78 269.81 244.81Q270.74 244.83 271.72 244.91Q272.70 244.98 273.63 245.18Q274.56 245.37 275.29 245.79Q276.01 246.21 276.46 246.93Q276.90 247.65 276.90 248.78L276.90 248.78Q276.90 249.83 276.38 250.83Q275.86 251.82 274.87 252.59Q273.89 253.37 272.46 253.84Q271.02 254.31 269.19 254.31L269.19 254.31Q267.40 254.31 266.06 253.97Q264.73 253.62 263.85 253.04Q262.96 252.45 262.53 251.69Q262.10 250.94 262.10 250.11L262.10 250.11Q262.10 249.00 262.77 248.25Q263.44 247.49 264.62 247.04L264.62 247.04Q263.99 246.72 263.61 246.18Q263.24 245.63 263.24 244.75L263.24 244.75Q263.24 244.39 263.37 244.01Q263.51 243.63 263.76 243.26Q264.02 242.89 264.40 242.56Q264.79 242.22 265.32 241.96L265.32 241.96Q264.11 241.31 263.42 240.22Q262.73 239.14 262.73 237.68L262.73 237.68Q262.73 236.50 263.20 235.55Q263.68 234.60 264.52 233.92Q265.37 233.25 266.52 232.89Q267.68 232.54 269.04 232.54L269.04 232.54Q270.06 232.54 270.96 232.75Q271.86 232.96 272.60 233.36L272.60 233.36ZM282.62 238.94L289.84 238.94Q289.84 238.19 289.63 237.54Q289.42 236.88 289.00 236.38Q288.58 235.88 287.94 235.60Q287.30 235.31 286.45 235.31L286.45 235.31Q284.79 235.31 283.83 236.26Q282.88 237.20 282.62 238.94L282.62 238.94ZM292.38 241.25L282.54 241.25Q282.63 242.47 282.97 243.36Q283.31 244.25 283.87 244.84Q284.43 245.42 285.20 245.70Q285.97 245.99 286.90 245.99L286.90 245.99Q287.83 245.99 288.50 245.77Q289.17 245.56 289.68 245.29Q290.18 245.03 290.56 244.81Q290.94 244.60 291.30 244.60L291.30 244.60Q291.78 244.60 292.01 244.95L292.01 244.95L293.11 246.35Q292.48 247.09 291.68 247.59Q290.89 248.10 290.03 248.40Q289.17 248.70 288.28 248.83Q287.39 248.95 286.55 248.95L286.55 248.95Q284.90 248.95 283.47 248.40Q282.04 247.85 280.99 246.77Q279.94 245.70 279.33 244.11Q278.73 242.52 278.73 240.43L278.73 240.43Q278.73 238.80 279.25 237.37Q279.78 235.93 280.76 234.87Q281.75 233.81 283.17 233.19Q284.59 232.57 286.37 232.57L286.37 232.57Q287.87 232.57 289.14 233.05Q290.41 233.53 291.33 234.45Q292.24 235.37 292.76 236.71Q293.28 238.05 293.28 239.78L293.28 239.78Q293.28 240.64 293.10 240.95Q292.91 241.25 292.38 241.25L292.38 241.25ZM307.80 225.69L298.81 248.77Q298.55 249.48 297.97 249.83Q297.39 250.19 296.78 250.19L296.78 250.19L295.16 250.19L304.21 227.03Q304.46 226.38 304.97 226.03Q305.48 225.69 306.16 225.69L306.16 225.69L307.80 225.69ZM330.39 232.82L333.30 232.82L328.25 248.72L325.18 248.72Q324.65 248.72 324.45 248.04L324.45 248.04L321.60 238.85Q321.46 238.38 321.34 237.92Q321.23 237.47 321.15 237.00L321.15 237.00Q321.06 237.47 320.94 237.94Q320.82 238.41 320.69 238.88L320.69 238.88L317.79 248.04Q317.60 248.72 316.97 248.72L316.97 248.72L314.02 248.72L308.98 232.82L312.04 232.82Q312.45 232.82 312.75 233.02Q313.04 233.22 313.14 233.53L313.14 233.53L315.42 242.02Q315.59 242.72 315.72 243.39Q315.85 244.05 315.94 244.72L315.94 244.72Q316.11 244.05 316.31 243.39Q316.50 242.72 316.72 242.02L316.72 242.02L319.35 233.50Q319.45 233.19 319.72 232.99Q319.99 232.78 320.38 232.78L320.38 232.78L322.06 232.78Q322.47 232.78 322.75 232.99Q323.04 233.19 323.13 233.50L323.13 233.50L325.69 242.02Q325.89 242.72 326.07 243.39Q326.25 244.07 326.42 244.74L326.42 244.74Q326.62 243.42 326.99 242.02L326.99 242.02L329.33 233.53Q329.44 233.22 329.72 233.02Q330.00 232.82 330.39 232.82L330.39 232.82ZM338.49 238.94L345.72 238.94Q345.72 238.19 345.51 237.54Q345.30 236.88 344.88 236.38Q344.46 235.88 343.82 235.60Q343.18 235.31 342.32 235.31L342.32 235.31Q340.66 235.31 339.71 236.26Q338.76 237.20 338.49 238.94L338.49 238.94ZM348.26 241.25L338.42 241.25Q338.51 242.47 338.85 243.36Q339.19 244.25 339.75 244.84Q340.31 245.42 341.08 245.70Q341.84 245.99 342.77 245.99L342.77 245.99Q343.70 245.99 344.38 245.77Q345.05 245.56 345.55 245.29Q346.06 245.03 346.44 244.81Q346.82 244.60 347.17 244.60L347.17 244.60Q347.66 244.60 347.89 244.95L347.89 244.95L348.99 246.35Q348.35 247.09 347.56 247.59Q346.77 248.10 345.91 248.40Q345.05 248.70 344.16 248.83Q343.27 248.95 342.43 248.95L342.43 248.95Q340.77 248.95 339.35 248.40Q337.92 247.85 336.87 246.77Q335.81 245.70 335.21 244.11Q334.60 242.52 334.60 240.43L334.60 240.43Q334.60 238.80 335.13 237.37Q335.66 235.93 336.64 234.87Q337.63 233.81 339.04 233.19Q340.46 232.57 342.25 232.57L342.25 232.57Q343.75 232.57 345.02 233.05Q346.29 233.53 347.21 234.45Q348.12 235.37 348.64 236.71Q349.16 238.05 349.16 239.78L349.16 239.78Q349.16 240.64 348.97 240.95Q348.79 241.25 348.26 241.25L348.26 241.25ZM355.85 237.47L355.85 244.60Q356.51 245.39 357.27 245.71Q358.04 246.04 358.89 246.04L358.89 246.04Q359.78 246.04 360.48 245.72Q361.19 245.40 361.68 244.73Q362.18 244.05 362.44 243.01Q362.71 241.96 362.71 240.50L362.71 240.50Q362.71 237.88 361.84 236.71Q360.97 235.54 359.34 235.54L359.34 235.54Q358.24 235.54 357.42 236.05Q356.60 236.55 355.85 237.47L355.85 237.47ZM355.85 225.69L355.85 234.77Q356.82 233.76 357.99 233.16Q359.16 232.57 360.66 232.57L360.66 232.57Q362.04 232.57 363.15 233.11Q364.26 233.65 365.04 234.67Q365.82 235.68 366.24 237.12Q366.66 238.57 366.66 240.36L366.66 240.36Q366.66 242.30 366.18 243.88Q365.70 245.46 364.81 246.59Q363.91 247.71 362.66 248.33Q361.40 248.95 359.87 248.95L359.87 248.95Q359.13 248.95 358.52 248.80Q357.92 248.66 357.40 248.39Q356.89 248.13 356.47 247.75Q356.04 247.37 355.65 246.91L355.65 246.91L355.48 247.97Q355.39 248.38 355.16 248.55Q354.94 248.72 354.55 248.72L354.55 248.72L352.03 248.72L352.03 225.69L355.85 225.69ZM373.45 237.47L373.45 244.60Q374.10 245.39 374.87 245.71Q375.63 246.04 376.53 246.04L376.53 246.04Q377.40 246.04 378.10 245.71Q378.79 245.39 379.28 244.72Q379.77 244.05 380.03 243.04Q380.30 242.02 380.30 240.64L380.30 240.64Q380.30 239.25 380.07 238.28Q379.85 237.31 379.43 236.71Q379.01 236.10 378.41 235.82Q377.82 235.54 377.06 235.54L377.06 235.54Q375.87 235.54 375.03 236.05Q374.19 236.55 373.45 237.47L373.45 237.47ZM372.94 233.51L373.25 234.99Q374.22 233.89 375.46 233.20Q376.70 232.52 378.38 232.52L378.38 232.52Q379.68 232.52 380.76 233.06Q381.83 233.61 382.62 234.64Q383.40 235.67 383.82 237.18Q384.25 238.69 384.25 240.64L384.25 240.64Q384.25 242.43 383.77 243.94Q383.29 245.46 382.40 246.58Q381.51 247.70 380.24 248.32Q378.98 248.95 377.42 248.95L377.42 248.95Q376.08 248.95 375.14 248.54Q374.19 248.13 373.45 247.40L373.45 247.40L373.45 253.91L369.62 253.91L369.62 232.82L371.96 232.82Q372.70 232.82 372.94 233.51L372.94 233.51Z" fill="#999999"/></svg>